<?xml version="1.0" encoding="UTF-8"?>
<svg version="1.1" xmlns="http://www.w3.org/2000/svg" width="710" height="212">
<path d="M0 0 C234.3 0 468.6 0 710 0 C710 69.96 710 139.92 710 212 C475.7 212 241.4 212 0 212 C0 142.04 0 72.08 0 0 Z " fill="#8D1131" transform="translate(0,0)"/>
<path d="M0 0 C-0.3059082 1.86303711 -0.3059082 1.86303711 -1 4 C-3.37247642 5.6741626 -5.6779936 7.12560753 -8.1875 8.5625 C-25.19732615 18.53198658 -25.19732615 18.53198658 -38 33 C-38.38572686 35.56860447 -38.38572686 35.56860447 -38 38 C-35.17310038 40.82689962 -32.41922569 40.42898513 -28.625 40.4375 C-10.6156189 40.32322728 6.02293301 33.40778155 22.66601562 27.19042969 C23.36188278 26.93067856 24.05774994 26.67092743 24.77470398 26.40330505 C26.68229537 25.68890467 28.58791991 24.96925869 30.4934082 24.24926758 C33.96387053 23.01287158 37.45650802 22.00345503 41 21 C43.34205301 20.02059602 45.67518826 19.01965427 48 18 C49.39069039 17.42490247 50.78667581 16.8624532 52.1875 16.3125 C52.82042969 16.06113281 53.45335937 15.80976562 54.10546875 15.55078125 C56 15 56 15 60 15 C60 16.32 60 17.64 60 19 C57.875 20.67578125 57.875 20.67578125 55 22.3125 C48.80738545 26.02806873 43.04817248 29.92774127 39 36 C38.66656449 38.54207971 38.66656449 38.54207971 39 41 C41.73442528 43.73442528 43.29630456 43.33139299 47.125 43.375 C64.89511219 43.06830771 83.5348155 35.79404282 99.68017578 28.75195312 C102.23954133 27.92235452 104.32646992 27.86517035 107 28 C107 29.32 107 30.64 107 32 C106.3294458 32.34780518 105.6588916 32.69561035 104.96801758 33.05395508 C101.9153273 34.63850326 98.86390429 36.22547689 95.8125 37.8125 C94.75740234 38.35970703 93.70230469 38.90691406 92.61523438 39.47070312 C91.08286133 40.26831055 91.08286133 40.26831055 89.51953125 41.08203125 C88.58214111 41.56905518 87.64475098 42.0560791 86.67895508 42.55786133 C84.06819076 43.96329146 81.54134474 45.47385349 79 47 C77.30896004 47.76842089 75.60013582 48.49902836 73.875 49.1875 C73.02679688 49.53167969 72.17859375 49.87585938 71.3046875 50.23046875 C69 51 69 51 66 51 C66 51.66 66 52.32 66 53 C65.29359375 53.268125 64.5871875 53.53625 63.859375 53.8125 C57.72756069 56.15429843 51.62337762 58.5490276 45.5390625 61.01123047 C29.26551605 67.58723375 29.26551605 67.58723375 21 70 C19.79472656 70.35707031 18.58945313 70.71414062 17.34765625 71.08203125 C12.31285177 72.3155287 7.34793752 72.33055611 2.1875 72.3125 C1.24712891 72.32861328 0.30675781 72.34472656 -0.66210938 72.36132812 C-2.0146582 72.36229492 -2.0146582 72.36229492 -3.39453125 72.36328125 C-4.61426636 72.36775269 -4.61426636 72.36775269 -5.85864258 72.37231445 C-8.51869112 71.90981599 -9.39542582 71.13995898 -11 69 C-11.83104178 63.65758853 -9.93399403 61.30930374 -7 57 C-6.66290938 54.24741188 -6.66290938 54.24741188 -7 52 C-16.13804408 52.36180039 -24.26418796 55.69498215 -32.75 58.8125 C-35.70151573 59.88598341 -38.65490125 60.95421758 -41.609375 62.01953125 C-42.6851329 62.40756424 -42.6851329 62.40756424 -43.78262329 62.80343628 C-79.35725352 75.54758216 -79.35725352 75.54758216 -93.1875 70.9375 C-95 69 -95 69 -95.6875 65.8125 C-93.24824951 52.2857473 -76.29974275 42.70347458 -65.8203125 35.3203125 C-51.11780223 25.11796647 -35.69487273 16.29199503 -20.00830078 7.70068359 C-17.89805109 6.5076955 -15.81471096 5.2664364 -13.75341797 3.99072266 C-12.17197998 3.01498291 -12.17197998 3.01498291 -10.55859375 2.01953125 C-9.61169678 1.41858643 -8.6647998 0.8176416 -7.68920898 0.19848633 C-4.58493712 -1.184979 -3.18577136 -1.01928786 0 0 Z " fill="#FBF9F8" transform="translate(149,53)"/>
<path d="M0 0 C1.27617187 0.02320312 2.55234375 0.04640625 3.8671875 0.0703125 C5.78917969 0.09738281 5.78917969 0.09738281 7.75 0.125 C9.23113281 0.15980469 9.23113281 0.15980469 10.7421875 0.1953125 C9.5757555 11.37933702 8.1508535 21.15064707 2.7421875 31.1953125 C3.4021875 31.1953125 4.0621875 31.1953125 4.7421875 31.1953125 C4.99226563 30.63585937 5.24234375 30.07640625 5.5 29.5 C11.08309492 19.14142766 21.41482376 8.52267624 29.7421875 0.1953125 C32.78125 0 32.78125 0 36.3671875 0.0703125 C38.14996094 0.09738281 38.14996094 0.09738281 39.96875 0.125 C40.88398438 0.14820312 41.79921875 0.17140625 42.7421875 0.1953125 C43.18240519 10.8094501 43.09875176 22.29612253 36.7421875 31.1953125 C37.4021875 31.1953125 38.0621875 31.1953125 38.7421875 31.1953125 C39.00386719 30.63328125 39.26554687 30.07125 39.53515625 29.4921875 C41.71927619 25.3359981 44.60721448 21.7001124 47.43945312 17.96826172 C48.89470042 15.98775087 50.2585585 13.9554222 51.6328125 11.91796875 C59.28874824 1.04327807 59.28874824 1.04327807 63.79492188 -0.51416016 C68.21303203 -1.16058872 72.36551551 -0.6763898 76.7421875 0.1953125 C76.7421875 0.8553125 76.7421875 1.5153125 76.7421875 2.1953125 C75.62235874 3.31514126 74.49759177 4.4302622 73.35546875 5.52734375 C69.85139382 9.15020088 66.85480606 13.23750725 63.7421875 17.1953125 C62.51494175 18.73850875 61.28576293 20.28016962 60.0546875 21.8203125 C59.41015625 22.62726563 58.765625 23.43421875 58.1015625 24.265625 C56.20392738 26.62196 54.29681757 28.9694938 52.3828125 31.3125 C51.79330811 32.0348584 51.20380371 32.7572168 50.59643555 33.50146484 C49.41465757 34.94845448 48.23126095 36.39412386 47.04614258 37.83837891 C46.50368896 38.50272949 45.96123535 39.16708008 45.40234375 39.8515625 C44.91386963 40.44775391 44.42539551 41.04394531 43.92211914 41.65820312 C42.65969177 43.20206917 42.65969177 43.20206917 41.7421875 45.1953125 C36.4621875 45.1953125 31.1821875 45.1953125 25.7421875 45.1953125 C26.0721875 36.9453125 26.4021875 28.6953125 26.7421875 20.1953125 C16.16540423 31.13173237 16.16540423 31.13173237 7.49609375 43.5 C5.7421875 45.1953125 5.7421875 45.1953125 1.94921875 45.5859375 C0.48386519 45.55941526 -0.98122801 45.51180367 -2.4453125 45.4453125 C-3.19490234 45.42726562 -3.94449219 45.40921875 -4.71679688 45.390625 C-6.5643496 45.34355359 -8.41124409 45.27181016 -10.2578125 45.1953125 C-10.57057273 37.27990043 -9.61189219 29.8064511 -8.3203125 22.0078125 C-7.95684405 19.74351963 -7.59355755 17.47919753 -7.23046875 15.21484375 C-7.05789551 14.1676416 -6.88532227 13.12043945 -6.70751953 12.04150391 C-6.33791522 9.70228181 -6.03055986 7.37078288 -5.75390625 5.01953125 C-5.02755174 0.88445793 -4.19086922 0.25125115 0 0 Z " fill="#F8F4F4" transform="translate(276.2578125,80.8046875)"/>
<path d="M0 0 C0.69029297 -0.01224609 1.38058594 -0.02449219 2.09179688 -0.03710938 C9.3569054 -0.05776845 14.27112768 1.87764153 20.0625 6.1875 C22.11904069 10.30058139 21.32149358 14.39613074 19.9375 18.625 C16.29847894 26.15692731 11.59888065 31.49621152 4.0625 35.1875 C3.41925781 35.5071875 2.77601563 35.826875 2.11328125 36.15625 C-2.85204381 38.1991266 -7.7418884 38.46278013 -13.0625 38.5 C-14.06603516 38.50833862 -14.06603516 38.50833862 -15.08984375 38.5168457 C-20.39170982 38.44037648 -25.51523223 37.89873026 -29.93359375 34.77734375 C-32.67754415 31.63183963 -34.36481186 29.10746764 -34.6875 24.875 C-34.19441769 18.30804018 -30.67539411 12.82030323 -26.00390625 8.328125 C-18.03302452 2.05086141 -10.05728848 0.00933824 0 0 Z " fill="#F7F2F2" transform="translate(433.9375,88.8125)"/>
<path d="M0 0 C1.75 1.38671875 1.75 1.38671875 3.75 4.38671875 C4.6089841 12.83339572 1.74296623 18.15799618 -3.5 24.63671875 C-10.01248962 31.70346281 -18.28280651 33.99621355 -27.65234375 34.609375 C-35.10237233 34.79224657 -41.74344596 34.94102796 -47.83984375 30.1328125 C-50.54603799 27.38163996 -51.26183979 25.30515573 -51.8125 21.51171875 C-51.31930457 14.34668512 -47.53033561 9.02311099 -42.25 4.38671875 C-41.54875 3.70609375 -40.8475 3.02546875 -40.125 2.32421875 C-28.71269908 -5.3666797 -12.11825547 -7.00586644 0 0 Z " fill="#F7F3F3" transform="translate(507.25,92.61328125)"/>
<path d="M0 0 C1.39456452 0.00667256 2.78911118 0.01863093 4.18359375 0.03515625 C4.89451172 0.03966797 5.60542969 0.04417969 6.33789062 0.04882812 C8.09899388 0.06064761 9.86005411 0.07858362 11.62109375 0.09765625 C10.11669688 5.10771188 8.52138053 7.56882535 4.62109375 11.09765625 C3.85796875 11.86078125 3.09484375 12.62390625 2.30859375 13.41015625 C1.75171875 13.96703125 1.19484375 14.52390625 0.62109375 15.09765625 C0.95109375 15.42765625 1.28109375 15.75765625 1.62109375 16.09765625 C2.1521875 15.68773438 2.68328125 15.2778125 3.23046875 14.85546875 C4.29007812 14.04722656 4.29007812 14.04722656 5.37109375 13.22265625 C6.0671875 12.68898438 6.76328125 12.1553125 7.48046875 11.60546875 C13.11351311 7.63766743 17.83078912 7.46466175 24.62109375 8.09765625 C28.78158581 9.17466306 31.17316165 10.4257581 33.62109375 14.09765625 C35.2228898 23.54825294 30.15410021 31.13017136 25.62109375 39.09765625 C25.02296875 40.24105469 24.42484375 41.38445312 23.80859375 42.5625 C21.62109375 45.09765625 21.62109375 45.09765625 18.16796875 45.68359375 C16.915 45.61398438 15.66203125 45.544375 14.37109375 45.47265625 C13.1078125 45.41851562 11.84453125 45.364375 10.54296875 45.30859375 C9.57875 45.23898438 8.61453125 45.169375 7.62109375 45.09765625 C8.33743052 39.77629742 10.8310827 35.32506304 13.26953125 30.625 C14.77537949 27.57010295 15.66634783 25.56242785 15.33203125 22.12890625 C15.09742188 21.45859375 14.8628125 20.78828125 14.62109375 20.09765625 C10.85152904 19.62233461 7.37868453 19.45715782 3.62109375 20.09765625 C0.94841568 22.18234514 -0.03099157 25.04490244 -1.37890625 28.09765625 C-2.41204163 30.18342013 -3.4657787 32.25819663 -4.51879883 34.33398438 C-5.59860272 36.47506903 -6.65412349 38.62684267 -7.70703125 40.78125 C-9.37890625 44.09765625 -9.37890625 44.09765625 -10.37890625 45.09765625 C-12.7320418 45.17037366 -15.08724293 45.18136493 -17.44140625 45.16015625 C-18.73175781 45.15113281 -20.02210938 45.14210937 -21.3515625 45.1328125 C-22.35058594 45.12121094 -23.34960938 45.10960937 -24.37890625 45.09765625 C-23.79707095 41.51177999 -22.83844812 38.73243235 -21.12890625 35.53515625 C-19.25950582 31.92381451 -17.62462649 28.31600464 -16.12890625 24.53515625 C-6.20856156 0.1794382 -6.20856156 0.1794382 0 0 Z " fill="#F7F3F3" transform="translate(364.37890625,80.90234375)"/>
<path d="M0 0 C1.39456452 0.00667256 2.78911118 0.01863093 4.18359375 0.03515625 C4.89451172 0.03966797 5.60542969 0.04417969 6.33789062 0.04882812 C8.09899388 0.06064761 9.86005411 0.07858362 11.62109375 0.09765625 C8.98591543 6.79726214 6.28069426 10.69574474 0.62109375 15.09765625 C0.95109375 15.42765625 1.28109375 15.75765625 1.62109375 16.09765625 C2.1521875 15.68773438 2.68328125 15.2778125 3.23046875 14.85546875 C4.29007813 14.04722656 4.29007813 14.04722656 5.37109375 13.22265625 C6.0671875 12.68898438 6.76328125 12.1553125 7.48046875 11.60546875 C13.32718535 7.48716107 18.56891746 7.31510405 25.62109375 8.09765625 C28.69396113 9.24867945 31.27009474 10.74665724 33.62109375 13.09765625 C35.61507038 22.16305517 30.93344821 29.47591329 26.69604492 37.10644531 C25.27562603 39.73759147 23.9582938 42.42325614 22.62109375 45.09765625 C17.67109375 45.09765625 12.72109375 45.09765625 7.62109375 45.09765625 C8.673329 39.83648 10.65662495 35.89460888 13.18164062 31.26953125 C15.03565893 27.73806782 16.14427666 25.10626899 15.62109375 21.09765625 C13.88630817 19.36287067 11.60572052 19.84399209 9.24609375 19.78515625 C8.26898437 19.74777344 7.291875 19.71039063 6.28515625 19.671875 C3.53518239 19.82043836 3.53518239 19.82043836 2.09155273 21.84448242 C0.65841304 24.04047217 -0.48053166 26.19115744 -1.5703125 28.57421875 C-1.95767578 29.40953125 -2.34503906 30.24484375 -2.74414062 31.10546875 C-3.13923828 31.96914062 -3.53433594 32.8328125 -3.94140625 33.72265625 C-4.73035641 35.44585596 -5.52315238 37.1673016 -6.3203125 38.88671875 C-6.66779541 39.64678223 -7.01527832 40.4068457 -7.37329102 41.18994141 C-8.37890625 43.09765625 -8.37890625 43.09765625 -10.37890625 45.09765625 C-13.63671875 45.29296875 -13.63671875 45.29296875 -17.50390625 45.22265625 C-19.42589844 45.19558594 -19.42589844 45.19558594 -21.38671875 45.16796875 C-22.37414062 45.14476562 -23.3615625 45.1215625 -24.37890625 45.09765625 C-24.37890625 43.77765625 -24.37890625 42.45765625 -24.37890625 41.09765625 C-23.71890625 41.09765625 -23.05890625 41.09765625 -22.37890625 41.09765625 C-22.25080566 40.55633057 -22.12270508 40.01500488 -21.99072266 39.45727539 C-19.92089579 31.67991285 -16.44040174 24.70993091 -12.79882812 17.58081055 C-11.74189969 15.51165089 -10.69620312 13.4371073 -9.65234375 11.36132812 C-8.9863047 10.04265156 -8.31966075 8.72428031 -7.65234375 7.40625 C-7.33880951 6.78656845 -7.02527527 6.1668869 -6.70223999 5.52842712 C-3.93372215 0.11369139 -3.93372215 0.11369139 0 0 Z " fill="#F7F1F1" transform="translate(582.37890625,80.90234375)"/>
<path d="M0 0 C2.95020173 2.47711816 2.95020173 2.47711816 3.25 5.625 C3 8 3 8 2 9 C-5.00428533 9.71688155 -8.50636841 9.39490527 -14 5 C-17.68908965 4.64214252 -21.30512096 4.76704791 -25 5 C-25.66 6.32 -26.32 7.64 -27 9 C-26.10539063 9.03738281 -25.21078125 9.07476562 -24.2890625 9.11328125 C-6.5636193 10.07703136 -6.5636193 10.07703136 -1.26171875 14.42578125 C0 16 0 16 0.5 18.8125 C-0.15013945 22.95713902 -2.10251877 25.15870261 -5 28 C-5.7425 28.7425 -6.485 29.485 -7.25 30.25 C-15.24928286 35.34045273 -26.79231068 34.99478267 -36 34 C-40.14750037 32.86514094 -42.93576361 31.06423639 -46 28 C-47 26 -47 26 -47 22 C-45.58461283 21.66127487 -44.16762037 21.32925376 -42.75 21 C-41.96109375 20.814375 -41.1721875 20.62875 -40.359375 20.4375 C-38 20 -38 20 -34 20 C-33.278125 20.825 -32.55625 21.65 -31.8125 22.5 C-28.33630118 25.58995451 -26.64928541 25.47466451 -22.18359375 25.2734375 C-20.05667771 25.00709739 -18.06421122 24.57105163 -16 24 C-16 23.01 -16 22.02 -16 21 C-16.54938232 20.91959473 -17.09876465 20.83918945 -17.66479492 20.75634766 C-20.17334447 20.38555309 -22.68038446 20.00536472 -25.1875 19.625 C-26.05181641 19.49867187 -26.91613281 19.37234375 -27.80664062 19.2421875 C-37.59411703 17.74219112 -37.59411703 17.74219112 -41.8125 14.6875 C-43 13 -43 13 -43.5625 10.75 C-42.68254851 6.44801496 -40.23380252 3.87828934 -37 1 C-26.22108105 -5.99684212 -11.12103693 -6.53278987 0 0 Z " fill="#F6F1F1" transform="translate(558,93)"/>
<path d="M0 0 C2 1.0625 2 1.0625 3 3 C3.85877874 8.47471445 2.52736015 11.74800146 -0.5234375 16.13671875 C-3.94269472 20.45149572 -7.00724974 23.12510447 -12.625 24 C-15.39667568 24.14489367 -16.9259999 24.02707321 -19.5625 23.0625 C-21.34853216 20.49993212 -21.67258459 18.36512561 -21.5234375 15.26171875 C-20.14992634 9.32692052 -16.02418406 4.29341199 -11 1 C-7.23448942 -0.25517019 -3.93771153 -0.43478898 0 0 Z " fill="#901B38" transform="translate(493,96)"/>
<path d="M0 0 C2.125 1.875 2.125 1.875 2.6875 4.5625 C1.71883457 10.26686311 -0.44171518 14.93557474 -4.875 18.75 C-9.85783826 22.27951044 -12.5923751 23.44614772 -18.875 22.875 C-20.92090202 21.34295244 -21.7455499 20.383769 -22.37890625 17.89453125 C-22.53133519 12.15304108 -21.19262857 9.03754415 -17.578125 4.6015625 C-12.43554594 -0.61178599 -7.1298463 -2.78993985 0 0 Z " fill="#901A37" transform="translate(437.875,97.125)"/>
<path d="M0 0 C3.12584877 0.47373499 6.25050716 0.95490951 9.375 1.4375 C10.26445313 1.57220703 11.15390625 1.70691406 12.0703125 1.84570312 C12.92109375 1.97783203 13.771875 2.10996094 14.6484375 2.24609375 C15.43395996 2.36654053 16.21948242 2.4869873 17.02880859 2.61108398 C19 3 19 3 21 4 C21 4.99 21 5.98 21 7 C16.69252998 9.44187643 12.86439009 9.72706186 8 9 C4.9375 7.125 4.9375 7.125 3 5 C3 4.34 3 3.68 3 3 C2.34 3 1.68 3 1 3 C0.67 2.01 0.34 1.02 0 0 Z " fill="#93263F" transform="translate(521,110)"/>
<path d="M0 0 C4.98688226 0.025772 7.11011615 0.77967155 10.75 4.3125 C13.43507329 5.10196609 13.43507329 5.10196609 15.75 5.3125 C15.75 5.6425 15.75 5.9725 15.75 6.3125 C8.64833859 7.37774921 -0.61544458 8.62977771 -7.25 5.3125 C-6.09678412 0.20540109 -5.23908405 0.13307834 0 0 Z " fill="#9A344B" transform="translate(538.25,96.6875)"/>
<path d="M0 0 C1.77503906 0.03480469 1.77503906 0.03480469 3.5859375 0.0703125 C5.36871094 0.09738281 5.36871094 0.09738281 7.1875 0.125 C8.10273438 0.14820312 9.01796875 0.17140625 9.9609375 0.1953125 C9.9609375 3.4953125 9.9609375 6.7953125 9.9609375 10.1953125 C9.6309375 10.1953125 9.3009375 10.1953125 8.9609375 10.1953125 C8.9609375 7.2253125 8.9609375 4.2553125 8.9609375 1.1953125 C1.88609611 1.27307193 1.88609611 1.27307193 -4.0390625 4.7578125 C-4.6990625 5.5621875 -5.3590625 6.3665625 -6.0390625 7.1953125 C-6.6990625 7.1953125 -7.3590625 7.1953125 -8.0390625 7.1953125 C-8.2865625 7.9378125 -8.5340625 8.6803125 -8.7890625 9.4453125 C-10.13053551 12.39655312 -11.64811776 14.04346224 -14.0390625 16.1953125 C-14.6990625 15.8653125 -15.3590625 15.5353125 -16.0390625 15.1953125 C-14.24849003 13.06938197 -12.45665697 10.94453694 -10.6640625 8.8203125 C-10.15617187 8.21703125 -9.64828125 7.61375 -9.125 6.9921875 C-8.63515625 6.41210938 -8.1453125 5.83203125 -7.640625 5.234375 C-7.19025879 4.70021973 -6.73989258 4.16606445 -6.27587891 3.61572266 C-3.31289436 0.21291095 -3.31289436 0.21291095 0 0 Z " fill="#DDBFC2" transform="translate(309.0390625,80.8046875)"/>
<path d="M0 0 C0.66 0.33 1.32 0.66 2 1 C-0.35186328 3.21079684 -2.70691707 5.41816736 -5.0625 7.625 C-5.71927734 8.24246094 -6.37605469 8.85992187 -7.05273438 9.49609375 C-11.2759158 13.44882513 -15.58220045 17.26583913 -20 21 C-17.47713425 11.74949225 -7.07798891 5.64447217 0 0 Z " fill="#E6D3D4" transform="translate(75,94)"/>
<path d="M0 0 C1.39456452 0.00667256 2.78911118 0.01863093 4.18359375 0.03515625 C4.89451172 0.03966797 5.60542969 0.04417969 6.33789062 0.04882812 C8.09899388 0.06064761 9.86005411 0.07858362 11.62109375 0.09765625 C11.29109375 0.75765625 10.96109375 1.41765625 10.62109375 2.09765625 C6.33109375 1.76765625 2.04109375 1.43765625 -2.37890625 1.09765625 C-3.03890625 2.41765625 -3.69890625 3.73765625 -4.37890625 5.09765625 C-5.71940585 6.87422199 -7.0970692 8.62314632 -8.50390625 10.34765625 C-9.22835938 11.2396875 -9.9528125 12.13171875 -10.69921875 13.05078125 C-11.25351562 13.72625 -11.8078125 14.40171875 -12.37890625 15.09765625 C-13.03890625 14.76765625 -13.69890625 14.43765625 -14.37890625 14.09765625 C-12.73394659 11.95114809 -11.08798299 9.80542336 -9.44140625 7.66015625 C-8.97283203 7.04849609 -8.50425781 6.43683594 -8.02148438 5.80664062 C-3.64310057 0.10529192 -3.64310057 0.10529192 0 0 Z " fill="#E1C6C9" transform="translate(341.37890625,80.90234375)"/>
<path d="M0 0 C0.33 0 0.66 0 1 0 C0.979375 0.78375 0.95875 1.5675 0.9375 2.375 C0.81315937 4.98114961 0.81315937 4.98114961 2 7 C-2 9.66666667 -6 12.33333333 -10 15 C-9.875 13.3125 -9.875 13.3125 -9 11 C-7.51437894 9.77274782 -6.02558954 8.54829144 -4.5 7.37109375 C-2.22618249 5.29268243 -1.17397059 2.80448531 0 0 Z " fill="#A34A5C" transform="translate(592,84)"/>
<path d="M0 0 C4.95 0 9.9 0 15 0 C14.34 1.32 13.68 2.64 13 4 C13 3.34 13 2.68 13 2 C8.38 2 3.76 2 -1 2 C-0.67 1.34 -0.34 0.68 0 0 Z " fill="#E0C2C7" transform="translate(361,81)"/>
<path d="M0 0 C0.33 0 0.66 0 1 0 C2.00718218 4.92643456 2.52885873 7.96051906 0.1875 12.5625 C-0.534375 13.366875 -1.25625 14.17125 -2 15 C-2.66 15 -3.32 15 -4 15 C-3.38722388 12.03824877 -2.74627478 10.61941217 -1 8 C-0.54860541 5.9507906 -0.54860541 5.9507906 -0.375 3.8125 C-0.25125 2.554375 -0.1275 1.29625 0 0 Z " fill="#A14658" transform="translate(317,97)"/>
<path d="M0 0 C0.66 0.33 1.32 0.66 2 1 C0.5484451 2.67257355 -0.91144409 4.33791758 -2.375 6 C-3.18710938 6.928125 -3.99921875 7.85625 -4.8359375 8.8125 C-5.55007812 9.534375 -6.26421875 10.25625 -7 11 C-7.66 11 -8.32 11 -9 11 C-7.59155282 7.78475695 -5.89655214 5.67816132 -3.375 3.25 C-2.74335937 2.63640625 -2.11171875 2.0228125 -1.4609375 1.390625 C-0.73777344 0.70226562 -0.73777344 0.70226562 0 0 Z " fill="#A14458" transform="translate(120,75)"/>
<path d="M0 0 C0.33 0.66 0.66 1.32 1 2 C1.66 2.33 2.32 2.66 3 3 C2.21654285 4.17219543 1.42297164 5.33763668 0.625 6.5 C0.18414062 7.1496875 -0.25671875 7.799375 -0.7109375 8.46875 C-1.13632812 8.9740625 -1.56171875 9.479375 -2 10 C-2.66 10 -3.32 10 -4 10 C-3.29445932 6.33118845 -1.72264494 3.29549466 0 0 Z " fill="#9A384D" transform="translate(283,102)"/>
<path d="M0 0 C0 2.97 0 5.94 0 9 C-0.66 7.68 -1.32 6.36 -2 5 C-4.475 6.485 -4.475 6.485 -7 8 C-5.84316054 5.30070793 -3.38550714 0 0 0 Z " fill="#A44B5D" transform="translate(304,100)"/>
<path d="M0 0 C0.66 0.33 1.32 0.66 2 1 C0.54744301 4.82946843 -1.42895561 6.12050295 -5 8 C-4.45773019 4.20411134 -2.79872437 2.52788007 0 0 Z " fill="#A44C5E" transform="translate(369,91)"/>
<path d="M0 0 C0.33 0.99 0.66 1.98 1 3 C-1.31 5.31 -3.62 7.62 -6 10 C-6 6.41087588 -5.33563446 5.89142971 -3 3.3125 C-2.443125 2.68988281 -1.88625 2.06726563 -1.3125 1.42578125 C-0.879375 0.95527344 -0.44625 0.48476562 0 0 Z " fill="#DEC2C4" transform="translate(62,105)"/>
<path d="M0 0 C0.66 0.33 1.32 0.66 2 1 C0.88121617 2.17262904 -0.24523051 3.33795138 -1.375 4.5 C-2.00148438 5.1496875 -2.62796875 5.799375 -3.2734375 6.46875 C-5 8 -5 8 -7 8 C-5.50902342 4.2047869 -3.24299151 2.38957269 0 0 Z " fill="#E5D1D4" transform="translate(412,94)"/>
<path d="M0 0 C0.33 0 0.66 0 1 0 C0.979375 0.78375 0.95875 1.5675 0.9375 2.375 C0.81315937 4.98114961 0.81315937 4.98114961 2 7 C0.02 7.66 -1.96 8.32 -4 9 C-2.68 6.03 -1.36 3.06 0 0 Z " fill="#9B384D" transform="translate(592,84)"/>
<path d="M0 0 C0.33 0 0.66 0 1 0 C1.33 2.31 1.66 4.62 2 7 C-1.75 10 -1.75 10 -4 10 C-3.71125 9.46375 -3.4225 8.9275 -3.125 8.375 C-1.83288192 5.64719516 -0.91441408 2.87387282 0 0 Z " fill="#E3CECE" transform="translate(143,106)"/>
<path d="M0 0 C1.65 0.33 3.3 0.66 5 1 C5 1.66 5 2.32 5 3 C3.02 3.33 1.04 3.66 -1 4 C-0.67 2.68 -0.34 1.36 0 0 Z " fill="#8E1D37" transform="translate(517,110)"/>
<path d="M0 0 C0.66 0 1.32 0 2 0 C2 0.99 2 1.98 2 3 C-1.33333333 6 -1.33333333 6 -4 6 C-2.84826645 3.53199953 -1.95216435 1.95216435 0 0 Z " fill="#A34A5C" transform="translate(193,82)"/>
</svg>
